<?xml version="1.0" encoding="utf-8"?>
<!-- Generator: Adobe Illustrator 24.1.0, SVG Export Plug-In . SVG Version: 6.00 Build 0)  -->
<svg version="1.1" xmlns="http://www.w3.org/2000/svg" xmlns:xlink="http://www.w3.org/1999/xlink" x="0px" y="0px"
	 width="20px" height="20px" viewBox="0 0 20 20" enable-background="new 0 0 20 20" xml:space="preserve">
<g>
	<path fill="#006E96" d="M17.19,9.99c0,4.28-3.47,7.75-7.75,7.75s-7.75-3.47-7.75-7.75s3.47-7.75,7.75-7.75S17.19,5.71,17.19,9.99z
		 M3,11.99h2.83c-0.08-0.64-0.13-1.31-0.13-2s0.05-1.36,0.13-2H3c-0.2,0.63-0.3,1.3-0.3,2S2.8,11.36,3,11.99z M3.41,6.99h2.58
		C6.27,5.6,6.74,4.41,7.33,3.58C5.62,4.15,4.2,5.39,3.41,6.99z M7.33,16.4c-0.6-0.84-1.07-2.02-1.35-3.41H3.41
		C4.2,14.59,5.62,15.83,7.33,16.4z M12.06,7.99H6.83c-0.08,0.62-0.13,1.28-0.13,2s0.05,1.38,0.13,2h5.23c0.08-0.62,0.13-1.28,0.13-2
		S12.14,8.6,12.06,7.99z M7,6.99h4.88c-0.52-2.37-1.6-3.75-2.44-3.75S7.52,4.61,7,6.99z M11.88,12.99H7
		c0.52,2.37,1.6,3.75,2.44,3.75S11.36,15.36,11.88,12.99z M11.55,3.58c0.6,0.84,1.07,2.02,1.35,3.41h2.58
		C14.68,5.39,13.27,4.15,11.55,3.58z M15.48,12.99H12.9c-0.28,1.39-0.76,2.57-1.35,3.41C13.27,15.83,14.68,14.59,15.48,12.99z
		 M15.89,11.99c0.2-0.63,0.3-1.3,0.3-2s-0.11-1.37-0.3-2h-2.83c0.08,0.64,0.13,1.31,0.13,2s-0.05,1.36-0.13,2H15.89z"/>
</g>
</svg>
