<svg xmlns="http://www.w3.org/2000/svg" version="1.1" xmlns:xlink="http://www.w3.org/1999/xlink" xmlns:svgjs="http://svgjs.com/svgjs" width="160" height="160" viewBox="0 0 160 160"><path class="p-mark" d="m2,152L70.03,6h65.16c11.47.02,22.85,6.93,22.81,21.26h0c0,4.87-1.3,10.52-4.22,17h0c-6.36,14.08-11.98,26.22-14.83,32.11h0c-8.76,18.29-20.85,25.56-42.3,25.45h-.7c-4.72-.04-10.05-.06-15.05-.06h0c-8.14,0-15.41.04-17.85.05h0l-22.94,49.39-.37.79H2Zm36.87-1.38v-1.38,1.38h0Zm56.51-76.57h.17c5.57-.08,8.75-2.2,11.49-7.85h0c.52-1.09,5.28-10.98,11.54-24.25h0c1.37-2.91,1.9-5.04,1.89-6.43h0c-.1-2.66-1.4-3.13-4.46-3.3h0l-20.95-.03-19.31,41.84,19.63.04" stroke-width="0"></path><style>
.p-mark { fill: #0077b3;}
@media (prefers-color-scheme: dark) { .p-mark { fill: #8FD8F2; } }
</style></svg>